<svg xmlns="http://www.w3.org/2000/svg" viewBox="0 0 500 500">
<circle cx="250.0" cy="250.0" r="14.705882352941176" stroke="black" stroke-width="3" fill="none" />
<circle cx="250.0" cy="250.0" r="88.23529411764706" stroke="black" stroke-width="3" fill="none" />
<circle cx="250.0" cy="250.0" r="139.7058823529412" stroke="black" stroke-width="3" fill="none" />
<circle cx="250.0" cy="250.0" r="213.23529411764707" stroke="black" stroke-width="3" fill="none" />
<circle cx="250.0" cy="250.0" r="250.0" stroke="black" stroke-width="3" fill="none" />
<line x1="237.52870446828786" y1="257.7929303563707" x2="175.1722268097271" y2="296.75758213822394" stroke="black" />
<line x1="235.86379858914236" y1="245.94650947327943" x2="165.1827915348542" y2="225.67905683967658" stroke="black" />
<line x1="263.9046849352841" y1="245.21223302268888" x2="333.42810961170443" y2="221.27339813613327" stroke="black" />
<line x1="260.5785264755684" y1="260.21556427145583" x2="313.4711588534104" y2="311.29338562873505" stroke="black" />
<line x1="242.20706964362935" y1="237.52870446828786" x2="203.24241786177606" y2="175.1722268097271" stroke="black" />
<line x1="263.72912391907647" y1="244.72988309492206" x2="332.37474351445894" y2="218.37929856953232" stroke="black" />
<line x1="260.5785264755684" y1="239.78443572854417" x2="313.4711588534104" y2="188.70661437126495" stroke="black" />
<line x1="235.4372342832122" y1="252.04666324941272" x2="162.6234056992732" y2="262.27997949647636" stroke="black" />
<line x1="260.39862913509626" y1="260.3986291350963" x2="312.3917748105777" y2="312.3917748105777" stroke="black" />
<line x1="254.78776697731112" y1="236.09531506471592" x2="278.72660186386673" y2="166.57189038829557" stroke="black" />
<line x1="235.4372342832122" y1="247.95333675058725" x2="162.62340569927323" y2="237.7200205035236" stroke="black" />
<line x1="244.2539539928048" y1="236.46316391981705" x2="215.5237239568288" y2="168.77898351890232" stroke="black" />
<line x1="262.60540148091343" y1="257.57408933691255" x2="325.63240888548046" y2="295.4445360214754" stroke="black" />
<line x1="250.51322789268383" y1="235.3030760732486" x2="253.07936735610303" y2="161.81845643949157" stroke="black" />
<line x1="257.12955323891674" y1="237.13794548324418" x2="292.77731943350034" y2="172.82767289946509" stroke="black" />
<line x1="264.32897154095934" y1="246.69189625964904" x2="335.97382924575606" y2="230.15137755789428" stroke="black" />
<line x1="235.4372342832122" y1="252.04666324941272" x2="162.6234056992732" y2="262.27997949647636" stroke="black" />
<line x1="245.94650947327943" y1="235.86379858914236" x2="225.6790568396766" y2="165.1827915348542" stroke="black" />
<line x1="235.93669476524948" y1="254.29958389298142" x2="165.62016859149688" y2="275.79750335788856" stroke="black" />
<line x1="264.5248285381638" y1="247.69949316117308" x2="337.14897122898276" y2="236.19695896703843" stroke="black" />
<line x1="235.35007796923904" y1="251.28170209923027" x2="162.10046781543423" y2="257.6902125953816" stroke="black" />
<line x1="260.92860037466755" y1="259.84015597586557" x2="315.5716022480054" y2="309.04093585519337" stroke="black" />
<line x1="250.7696464153374" y1="235.31427154772686" x2="254.6178784920245" y2="161.88562928636114" stroke="black" />
<line x1="236.89696287958282" y1="243.32366912147725" x2="171.38177727749695" y2="209.9420147288635" stroke="black" />
<line x1="238.57138291975042" y1="240.74528836691417" x2="181.42829751850255" y2="194.47173020148495" stroke="black" />
<line x1="235.86379858914236" y1="254.05349052672057" x2="165.1827915348542" y2="274.3209431603234" stroke="black" />
<line x1="246.44232506471076" y1="264.2690547981764" x2="228.6539503882646" y2="335.6143287890585" stroke="black" />
<line x1="251.79219622654628" y1="235.40373306409822" x2="260.75317735927774" y2="162.42239838458926" stroke="black" />
<line x1="235.35007796923904" y1="251.28170209923027" x2="162.10046781543423" y2="257.6902125953816" stroke="black" />
<line x1="236.5655079758441" y1="244.01857877829707" x2="169.39304785506462" y2="214.11147266978236" stroke="black" />
<line x1="235.2963574241707" y1="249.7433469641576" x2="161.7781445450243" y2="248.46008178494557" stroke="black" />
<line x1="243.09600642961925" y1="237.01547657560403" x2="208.57603857771554" y2="172.0928594536241" stroke="black" />
<line x1="243.32366912147725" y1="236.89696287958282" x2="209.94201472886357" y2="171.38177727749695" stroke="black" />
<line x1="254.54436756433745" y1="263.9861252396346" x2="277.26620538602475" y2="333.91675143780765" stroke="black" />
<line x1="264.32897154095934" y1="246.69189625964904" x2="335.97382924575606" y2="230.15137755789428" stroke="black" />
<line x1="258.43494759339774" y1="262.04635359248516" x2="300.6096855603864" y2="322.278121554911" stroke="black" />
<line x1="252.04666324941272" y1="235.4372342832122" x2="262.27997949647636" y2="162.6234056992732" stroke="black" />
<line x1="251.79219622654628" y1="235.40373306409822" x2="260.75317735927774" y2="162.42239838458926" stroke="black" />
<line x1="258.85022092870656" y1="261.74463985363667" x2="303.10132557223955" y2="320.46783912181996" stroke="black" />
<line x1="251.79219622654628" y1="235.40373306409822" x2="260.75317735927774" y2="162.42239838458926" stroke="black" />
<line x1="236.01387476036538" y1="254.54436756433745" x2="166.08324856219232" y2="277.26620538602475" stroke="black" />
<line x1="248.20780377345372" y1="235.40373306409822" x2="239.24682264072226" y2="162.42239838458926" stroke="black" />
<line x1="257.57408933691255" y1="262.60540148091343" x2="295.44453602147536" y2="325.6324088854805" stroke="black" />
<line x1="255.98142122170293" y1="236.5655079758441" x2="285.88852733021764" y2="169.39304785506462" stroke="black" />
<line x1="235.31427154772686" y1="250.7696464153374" x2="161.8856292863611" y2="254.61787849202437" stroke="black" />
<line x1="239.4214735244316" y1="239.78443572854417" x2="186.52884114658963" y2="188.70661437126492" stroke="black" />
<line x1="242.87044676108326" y1="262.8620545167558" x2="207.2226805664996" y2="327.17232710053486" stroke="black" />
<line x1="264.32897154095934" y1="253.30810374035096" x2="335.97382924575606" y2="269.84862244210575" stroke="black" />
<line x1="256.21497443736325" y1="263.32805569171546" x2="287.28984662417935" y2="329.96833415029266" stroke="black" />
<line x1="254.29958389298142" y1="235.93669476524948" x2="275.79750335788856" y2="165.62016859149688" stroke="black" />
<line x1="254.54436756433745" y1="263.9861252396346" x2="277.26620538602475" y2="333.91675143780765" stroke="black" />
<line x1="239.97061235202207" y1="260.75520149439956" x2="189.82367411213244" y2="314.53120896639734" stroke="black" />
<line x1="245.94650947327943" y1="264.1362014108576" x2="225.67905683967658" y2="334.81720846514577" stroke="black" />
<line x1="235.51753304393813" y1="247.44635032842749" x2="163.10519826362872" y2="234.67810197056497" stroke="black" />
<line x1="251.79219622654628" y1="264.5962669359018" x2="260.75317735927774" y2="337.57760161541074" stroke="black" />
<line x1="241.35609923099304" y1="261.89730874080806" x2="198.13659538595823" y2="321.3838524448483" stroke="black" />
<line x1="254.29958389298142" y1="235.93669476524948" x2="275.79750335788856" y2="165.62016859149688" stroke="black" />
<line x1="245.94650947327943" y1="264.1362014108576" x2="225.67905683967658" y2="334.81720846514577" stroke="black" />
<line x1="259.0538452253773" y1="238.41160656460704" x2="304.323071352264" y2="180.4696393876422" stroke="black" />
<line x1="238.9013297026063" y1="240.35207310308078" x2="183.4079782156378" y2="192.11243861848462" stroke="black" />
<line x1="244.2539539928048" y1="236.46316391981705" x2="215.5237239568288" y2="168.77898351890232" stroke="black" />
<line x1="240.15984402413443" y1="260.92860037466755" x2="190.95906414480658" y2="315.5716022480053" stroke="black" />
<line x1="236.2708760809235" y1="255.27011690507794" x2="167.62525648554103" y2="281.6207014304677" stroke="black" />
<line x1="264.5248285381638" y1="247.69949316117308" x2="337.14897122898276" y2="236.19695896703843" stroke="black" />
<line x1="263.9861252396346" y1="245.45563243566255" x2="333.91675143780765" y2="222.73379461397525" stroke="black" />
<line x1="256.90399357038075" y1="262.984523424396" x2="291.4239614222845" y2="327.9071405463759" stroke="black" />
<line x1="236.46316391981705" y1="244.2539539928048" x2="168.77898351890235" y2="215.52372395682877" stroke="black" />
<line x1="256.4466345116041" y1="263.2175595043995" x2="288.6798070696245" y2="329.3053570263971" stroke="black" />
<line x1="253.55767493528924" y1="264.2690547981764" x2="271.3460496117354" y2="335.6143287890585" stroke="black" />
<line x1="245.21223302268888" y1="236.09531506471592" x2="221.27339813613324" y2="166.57189038829557" stroke="black" />
<line x1="258.43494759339774" y1="237.95364640751484" x2="300.6096855603864" y2="177.72187844508895" stroke="black" />
<line x1="249.48677210731617" y1="264.6969239267514" x2="246.920632643897" y2="338.18154356050843" stroke="black" />
<line x1="237.13794548324418" y1="242.87044676108326" x2="172.82767289946509" y2="207.2226805664996" stroke="black" />
<line x1="238.73464054236797" y1="240.54724103402148" x2="182.40784325420782" y2="193.28344620412886" stroke="black" />
<line x1="262.86205451675585" y1="257.12955323891674" x2="327.1723271005349" y2="292.77731943350034" stroke="black" />
<line x1="264.5248285381638" y1="252.30050683882692" x2="337.14897122898276" y2="263.8030410329616" stroke="black" />
<line x1="237.66660929492022" y1="258.0093975737504" x2="175.99965576952138" y2="298.05638544250235" stroke="black" />
<line x1="256.4466345116041" y1="236.7824404956005" x2="288.67980706962453" y2="170.69464297360292" stroke="black" />
<line x1="247.19398536210963" y1="264.43569387423037" x2="233.16391217265783" y2="336.6141632453821" stroke="black" />
<line x1="240.74528836691417" y1="238.57138291975042" x2="194.47173020148495" y2="181.42829751850257" stroke="black" />
<line x1="382.0945068851987" y1="204.51621371554432" x2="451.61793156161906" y2="180.57737882898869" stroke="black" />
<line x1="300.06611059824047" y1="380.42667723122673" x2="326.41669512363023" y2="449.0722968266092" stroke="black" />
<line x1="141.42813773762902" y1="337.91976051431544" x2="84.28505233638111" y2="384.1933186797446" stroke="black" />
<line x1="274.2596718799389" y1="112.4165639174121" x2="287.0279202378014" y2="40.0042291371027" stroke="black" />
<line x1="112.014128887444" y1="228.1451850311442" x2="39.389986196625046" y2="216.64265083700957" stroke="black" />
<line x1="361.5740786095483" y1="334.0770988227126" x2="420.2972778777316" y2="378.3282034662456" stroke="black" />
<line x1="209.15395301667644" y1="383.60139973012997" x2="187.65603355176927" y2="453.9179259038825" stroke="black" />
<line x1="373.3529725317619" y1="184.41206108138294" x2="438.2755896537418" y2="149.8920932294792" stroke="black" />
<line x1="110.82574070777082" y1="237.82383005731245" x2="37.57613055396601" y2="231.4153195611611" stroke="black" />
<line x1="388.3462743094841" y1="269.4433008694209" x2="461.1601028934231" y2="279.6766171164845" stroke="black" />
<line x1="252.43820384050284" y1="389.6846044703782" x2="253.72146901971487" y2="463.2028173495246" stroke="black" />
<line x1="343.48148177072284" y1="146.17829644065813" x2="392.6822616500506" y2="91.5352945673203" stroke="black" />
<line x1="380.42667723122673" y1="300.06611059824047" x2="449.0722968266092" y2="326.4166951236302" stroke="black" />
<line x1="384.9455198492081" y1="213.84145693420663" x2="455.9694776645807" y2="194.8106447943154" stroke="black" />
<line x1="339.80121017679596" y1="142.9790851524957" x2="387.0650050066886" y2="86.65228786433559" stroke="black" />
<line x1="113.34702636807125" y1="279.04648621718695" x2="41.424408667056156" y2="294.33411054202224" stroke="black" />
<line x1="389.7058823529412" y1="250.0" x2="463.2352941176471" y2="250.0" stroke="black" />
<line x1="306.82350160617796" y1="377.62767422948104" x2="336.73060771469267" y2="444.80013435026046" stroke="black" />
<line x1="283.7979118852477" y1="114.44397941732402" x2="301.58628656169384" y2="43.09870542644191" stroke="black" />
<line x1="114.44397941732399" y1="283.7979118852477" x2="43.09870542644188" y2="301.5862865616938" stroke="black" />
<line x1="160.19878982320404" y1="357.0209148475043" x2="112.93499499331139" y2="413.3477121356644" stroke="black" />
<line x1="184.41206108138294" y1="126.64702746823812" x2="149.89209322947923" y2="61.72441034625817" stroke="black" />
<line x1="138.42592139045172" y1="165.92290117728737" x2="79.70272212226843" y2="121.67179653375442" stroke="black" />
<line x1="184.4120610813829" y1="373.35297253176185" x2="149.89209322947914" y2="438.2755896537418" stroke="black" />
<line x1="387.1390918051884" y1="223.34286094004153" x2="459.3175611763401" y2="209.3127877505897" stroke="black" />
<line x1="160.19878982320407" y1="142.9790851524957" x2="112.93499499331148" y2="86.65228786433556" stroke="black" />
<line x1="300.0661105982405" y1="119.5733227687733" x2="326.4166951236303" y2="50.927703173390825" stroke="black" />
<line x1="348.78697678341473" y1="348.78697678341473" x2="400.78012245889613" y2="400.7801224588962" stroke="black" />
<line x1="163.98847035891538" y1="360.0897376362332" x2="118.71924423202876" y2="418.0317048131981" stroke="black" />
<line x1="113.87477036088626" y1="218.57301446666588" x2="42.22991265608957" y2="202.0324957649111" stroke="black" />
<line x1="130.24868593132257" y1="178.04615129933063" x2="67.22167852675548" y2="140.17570461476777" stroke="black" />
<line x1="317.7307557697089" y1="372.18951790918027" x2="353.3785219642925" y2="436.4997904929594" stroke="black" />
<line x1="385.55602058267596" y1="216.2020881147523" x2="456.90129457355806" y2="198.41371343830616" stroke="black" />
<line x1="149.50399848210026" y1="152.95213942116945" x2="96.61136610425825" y2="101.8743180638902" stroke="black" />
<line x1="142.9790851524957" y1="160.19878982320404" x2="86.65228786433559" y2="112.93499499331142" stroke="black" />
<line x1="383.60139973012997" y1="209.1539530166765" x2="453.91792590388263" y2="187.65603355176938" stroke="black" />
<line x1="363.0244330376765" y1="167.8829426944339" x2="422.5109767417167" y2="124.66343884939913" stroke="black" />
<line x1="350.4960015178998" y1="152.95213942116948" x2="403.3886338957418" y2="101.87431806389026" stroke="black" />
<line x1="350.4960015178998" y1="347.0478605788305" x2="403.3886338957418" y2="398.12568193610974" stroke="black" />
<line x1="319.8529411764706" y1="129.0111568242328" x2="356.61764705882354" y2="65.33281831067114" stroke="black" />
<line x1="124.43318470820462" y1="188.7569721397612" x2="58.34538718620706" y2="156.52379958174078" stroke="black" />
<line x1="115.0544801507919" y1="286.1585430657933" x2="44.03052233541922" y2="305.1893552056845" stroke="black" />
<line x1="382.0945068851987" y1="295.48378628445573" x2="451.617931561619" y2="319.4226211710114" stroke="black" />
<line x1="274.2596718799388" y1="387.5834360825879" x2="287.0279202378013" y2="459.9957708628973" stroke="black" />
<line x1="182.26924423029112" y1="127.81048209081972" x2="146.62147803570747" y2="63.50020950704064" stroke="black" />
<line x1="211.49183999615457" y1="384.2939134031475" x2="191.22438736255168" y2="454.9749204574357" stroke="black" />
<line x1="337.91976051431556" y1="358.5718622623709" x2="384.1933186797448" y2="415.7149476636188" stroke="black" />
<line x1="389.5144202965949" y1="242.6883590542946" x2="462.9430625579606" y2="238.84012697760755" stroke="black" />
<line x1="230.5566991305791" y1="111.6537256905159" x2="220.32338288351545" y2="38.83989710657693" stroke="black" />
<line x1="269.4433008694209" y1="111.6537256905159" x2="279.6766171164845" y2="38.8398971065769" stroke="black" />
<line x1="358.5718622623709" y1="162.0802394856845" x2="415.71494766361883" y2="115.80668132025528" stroke="black" />
<line x1="381.28058672744305" y1="297.78222590579196" x2="450.37563237346575" y2="322.9307658562088" stroke="black" />
<line x1="220.95351378281308" y1="113.34702636807125" x2="205.66588945797784" y2="41.42440866705613" stroke="black" />
<line x1="367.16721169825774" y1="326.0892769506288" x2="428.83416522365656" y2="366.1362648193808" stroke="black" />
<line x1="131.52269244873457" y1="324.03283838552125" x2="69.16621479017383" y2="362.9974901673745" stroke="black" />
<line x1="110.31539552962181" y1="247.56179615949716" x2="36.79718265047538" y2="246.27853098028513" stroke="black" />
<line x1="386.12522963911374" y1="281.4269855333341" x2="457.77008734391046" y2="297.9675042350889" stroke="black" />
<line x1="352.1744141967959" y1="154.72081734420976" x2="405.95042166879375" y2="104.57387910432018" stroke="black" />
<line x1="343.48148177072284" y1="146.17829644065813" x2="392.6822616500506" y2="91.5352945673203" stroke="black" />
<line x1="283.7979118852477" y1="114.44397941732402" x2="301.58628656169384" y2="43.09870542644191" stroke="black" />
<line x1="195.41256293164554" y1="378.599942761738" x2="166.68233289566953" y2="446.2841231626527" stroke="black" />
<line x1="324.03283838552125" y1="368.4773075512654" x2="362.99749016737456" y2="430.83378520982615" stroke="black" />
<line x1="389.1742592922292" y1="262.1761699426876" x2="462.423869446034" y2="268.5846804388389" stroke="black" />
<line x1="373.3529725317619" y1="184.41206108138294" x2="438.2755896537418" y2="149.8920932294792" stroke="black" />
<line x1="202.21777409420793" y1="381.28058672744305" x2="177.06923414379108" y2="450.3756323734657" stroke="black" />
<line x1="144.5626321747598" y1="158.34469447926733" x2="89.06928068779132" y2="110.10505999467117" stroke="black" />
<line x1="228.14518503114422" y1="112.01412888744397" x2="216.64265083700963" y2="39.38998619662502" stroke="black" />
<line x1="173.9107230493712" y1="132.8327883017422" x2="133.86373518061922" y2="71.16583477634339" stroke="black" />
<line x1="382.8681897765288" y1="206.82850813879412" x2="452.7988159747019" y2="184.10667031710682" stroke="black" />
<line x1="279.04648621718695" y1="386.6529736319287" x2="294.3341105420222" y2="458.5755913329439" stroke="black" />
<line x1="213.84145693420666" y1="384.9455198492081" x2="194.81064479431544" y2="455.9694776645807" stroke="black" />
<line x1="240.25461028574728" y1="110.63443415487748" x2="235.12545780456162" y2="37.284136341655085" stroke="black" />
<line x1="382.8681897765288" y1="206.82850813879412" x2="452.7988159747019" y2="184.10667031710682" stroke="black" />
<line x1="360.0897376362332" y1="163.98847035891538" x2="418.0317048131981" y2="118.71924423202873" stroke="black" />
<line x1="209.15395301667644" y1="383.60139973012997" x2="187.65603355176927" y2="453.9179259038825" stroke="black" />
<line x1="386.12522963911374" y1="281.4269855333341" x2="457.77008734391046" y2="297.9675042350889" stroke="black" />
<line x1="141.42813773762902" y1="162.0802394856845" x2="84.28505233638114" y2="115.80668132025531" stroke="black" />
<line x1="384.2939134031475" y1="211.49183999615454" x2="454.9749204574357" y2="191.22438736255168" stroke="black" />
<line x1="113.34702636807125" y1="220.95351378281296" x2="41.424408667056156" y2="205.6658894579777" stroke="black" />
<line x1="147.82558580320412" y1="154.72081734420976" x2="94.04957833120628" y2="104.57387910432016" stroke="black" />
</svg>
