<svg xmlns="http://www.w3.org/2000/svg" viewBox="0 0 500 500">
<line x1="50" y1="0" x2="0" y2="50" stroke="darkviolet" />
<line x1="100" y1="0" x2="50" y2="50" stroke="darkviolet" />
<line x1="100" y1="0" x2="150" y2="50" stroke="darkviolet" />
<line x1="150" y1="0" x2="200" y2="50" stroke="darkviolet" />
<line x1="250" y1="0" x2="200" y2="50" stroke="darkviolet" />
<line x1="300" y1="0" x2="250" y2="50" stroke="darkviolet" />
<line x1="300" y1="0" x2="350" y2="50" stroke="darkviolet" />
<line x1="350" y1="0" x2="400" y2="50" stroke="darkviolet" />
<line x1="450" y1="0" x2="400" y2="50" stroke="darkviolet" />
<line x1="450" y1="0" x2="500" y2="50" stroke="darkviolet" />
<line x1="50" y1="50" x2="0" y2="100" stroke="darkviolet" />
<line x1="50" y1="50" x2="100" y2="100" stroke="darkviolet" />
<line x1="100" y1="50" x2="150" y2="100" stroke="darkviolet" />
<line x1="150" y1="50" x2="200" y2="100" stroke="darkviolet" />
<line x1="200" y1="50" x2="250" y2="100" stroke="darkviolet" />
<line x1="250" y1="50" x2="300" y2="100" stroke="darkviolet" />
<line x1="300" y1="50" x2="350" y2="100" stroke="darkviolet" />
<line x1="400" y1="50" x2="350" y2="100" stroke="darkviolet" />
<line x1="400" y1="50" x2="450" y2="100" stroke="darkviolet" />
<line x1="500" y1="50" x2="450" y2="100" stroke="darkviolet" />
<line x1="50" y1="100" x2="0" y2="150" stroke="darkviolet" />
<line x1="50" y1="100" x2="100" y2="150" stroke="darkviolet" />
<line x1="100" y1="100" x2="150" y2="150" stroke="darkviolet" />
<line x1="150" y1="100" x2="200" y2="150" stroke="darkviolet" />
<line x1="250" y1="100" x2="200" y2="150" stroke="darkviolet" />
<line x1="250" y1="100" x2="300" y2="150" stroke="darkviolet" />
<line x1="300" y1="100" x2="350" y2="150" stroke="darkviolet" />
<line x1="400" y1="100" x2="350" y2="150" stroke="darkviolet" />
<line x1="450" y1="100" x2="400" y2="150" stroke="darkviolet" />
<line x1="450" y1="100" x2="500" y2="150" stroke="darkviolet" />
<line x1="0" y1="150" x2="50" y2="200" stroke="darkviolet" />
<line x1="100" y1="150" x2="50" y2="200" stroke="darkviolet" />
<line x1="150" y1="150" x2="100" y2="200" stroke="darkviolet" />
<line x1="200" y1="150" x2="150" y2="200" stroke="darkviolet" />
<line x1="200" y1="150" x2="250" y2="200" stroke="darkviolet" />
<line x1="250" y1="150" x2="300" y2="200" stroke="darkviolet" />
<line x1="350" y1="150" x2="300" y2="200" stroke="darkviolet" />
<line x1="400" y1="150" x2="350" y2="200" stroke="darkviolet" />
<line x1="400" y1="150" x2="450" y2="200" stroke="darkviolet" />
<line x1="500" y1="150" x2="450" y2="200" stroke="darkviolet" />
<line x1="50" y1="200" x2="0" y2="250" stroke="darkviolet" />
<line x1="50" y1="200" x2="100" y2="250" stroke="darkviolet" />
<line x1="150" y1="200" x2="100" y2="250" stroke="darkviolet" />
<line x1="150" y1="200" x2="200" y2="250" stroke="darkviolet" />
<line x1="200" y1="200" x2="250" y2="250" stroke="darkviolet" />
<line x1="250" y1="200" x2="300" y2="250" stroke="darkviolet" />
<line x1="300" y1="200" x2="350" y2="250" stroke="darkviolet" />
<line x1="400" y1="200" x2="350" y2="250" stroke="darkviolet" />
<line x1="450" y1="200" x2="400" y2="250" stroke="darkviolet" />
<line x1="450" y1="200" x2="500" y2="250" stroke="darkviolet" />
<line x1="50" y1="250" x2="0" y2="300" stroke="darkviolet" />
<line x1="50" y1="250" x2="100" y2="300" stroke="darkviolet" />
<line x1="150" y1="250" x2="100" y2="300" stroke="darkviolet" />
<line x1="200" y1="250" x2="150" y2="300" stroke="darkviolet" />
<line x1="200" y1="250" x2="250" y2="300" stroke="darkviolet" />
<line x1="300" y1="250" x2="250" y2="300" stroke="darkviolet" />
<line x1="350" y1="250" x2="300" y2="300" stroke="darkviolet" />
<line x1="350" y1="250" x2="400" y2="300" stroke="darkviolet" />
<line x1="450" y1="250" x2="400" y2="300" stroke="darkviolet" />
<line x1="450" y1="250" x2="500" y2="300" stroke="darkviolet" />
<line x1="50" y1="300" x2="0" y2="350" stroke="darkviolet" />
<line x1="100" y1="300" x2="50" y2="350" stroke="darkviolet" />
<line x1="150" y1="300" x2="100" y2="350" stroke="darkviolet" />
<line x1="200" y1="300" x2="150" y2="350" stroke="darkviolet" />
<line x1="200" y1="300" x2="250" y2="350" stroke="darkviolet" />
<line x1="300" y1="300" x2="250" y2="350" stroke="darkviolet" />
<line x1="350" y1="300" x2="300" y2="350" stroke="darkviolet" />
<line x1="350" y1="300" x2="400" y2="350" stroke="darkviolet" />
<line x1="450" y1="300" x2="400" y2="350" stroke="darkviolet" />
<line x1="450" y1="300" x2="500" y2="350" stroke="darkviolet" />
<line x1="50" y1="350" x2="0" y2="400" stroke="darkviolet" />
<line x1="50" y1="350" x2="100" y2="400" stroke="darkviolet" />
<line x1="100" y1="350" x2="150" y2="400" stroke="darkviolet" />
<line x1="200" y1="350" x2="150" y2="400" stroke="darkviolet" />
<line x1="250" y1="350" x2="200" y2="400" stroke="darkviolet" />
<line x1="300" y1="350" x2="250" y2="400" stroke="darkviolet" />
<line x1="300" y1="350" x2="350" y2="400" stroke="darkviolet" />
<line x1="350" y1="350" x2="400" y2="400" stroke="darkviolet" />
<line x1="400" y1="350" x2="450" y2="400" stroke="darkviolet" />
<line x1="450" y1="350" x2="500" y2="400" stroke="darkviolet" />
<line x1="50" y1="400" x2="0" y2="450" stroke="darkviolet" />
<line x1="100" y1="400" x2="50" y2="450" stroke="darkviolet" />
<line x1="100" y1="400" x2="150" y2="450" stroke="darkviolet" />
<line x1="150" y1="400" x2="200" y2="450" stroke="darkviolet" />
<line x1="200" y1="400" x2="250" y2="450" stroke="darkviolet" />
<line x1="250" y1="400" x2="300" y2="450" stroke="darkviolet" />
<line x1="300" y1="400" x2="350" y2="450" stroke="darkviolet" />
<line x1="350" y1="400" x2="400" y2="450" stroke="darkviolet" />
<line x1="400" y1="400" x2="450" y2="450" stroke="darkviolet" />
<line x1="500" y1="400" x2="450" y2="450" stroke="darkviolet" />
<line x1="0" y1="450" x2="50" y2="500" stroke="darkviolet" />
<line x1="50" y1="450" x2="100" y2="500" stroke="darkviolet" />
<line x1="100" y1="450" x2="150" y2="500" stroke="darkviolet" />
<line x1="150" y1="450" x2="200" y2="500" stroke="darkviolet" />
<line x1="250" y1="450" x2="200" y2="500" stroke="darkviolet" />
<line x1="300" y1="450" x2="250" y2="500" stroke="darkviolet" />
<line x1="300" y1="450" x2="350" y2="500" stroke="darkviolet" />
<line x1="400" y1="450" x2="350" y2="500" stroke="darkviolet" />
<line x1="450" y1="450" x2="400" y2="500" stroke="darkviolet" />
<line x1="450" y1="450" x2="500" y2="500" stroke="darkviolet" />
</svg>